<svg width="505" height="321" viewBox="0 0 505 321" fill="none" xmlns="http://www.w3.org/2000/svg">
  <path d="M445 265.386H60C57.7465 265.384 55.586 264.487 53.9925 262.894C52.399 261.3 51.5026 259.14 51.5 256.886V32.7544C51.5025 30.5008 52.3989 28.3403 53.9924 26.7468C55.5859 25.1533 57.7464 24.2569 60 24.2544H445C447.254 24.257 449.414 25.1534 451.008 26.7469C452.601 28.3404 453.497 30.5009 453.5 32.7544V256.886C453.497 259.14 452.601 261.3 451.007 262.894C449.414 264.487 447.254 265.384 445 265.386Z" fill="hsl(var(--background))" stroke="gray" />
  <path d="M469 296.754H36V10.2544C36.0029 7.73572 37.0047 5.32101 38.7856 3.54004C40.5666 1.75906 42.9813 0.757256 45.5 0.754395H459.5C462.019 0.757256 464.433 1.75906 466.214 3.54004C467.995 5.32101 468.997 7.73572 469 10.2544V296.754ZM38 294.754H467V10.2544C466.998 8.26594 466.207 6.35954 464.801 4.95349C463.395 3.54744 461.488 2.75657 459.5 2.75439H45.5C43.5115 2.75657 41.6051 3.54744 40.1991 4.95349C38.793 6.35954 38.0022 8.26594 38 10.2544V294.754Z" fill="gray"/>
  <path d="M252.5 17.2544C254.709 17.2544 256.5 15.4635 256.5 13.2544C256.5 11.0453 254.709 9.25439 252.5 9.25439C250.291 9.25439 248.5 11.0453 248.5 13.2544C248.5 15.4635 250.291 17.2544 252.5 17.2544Z" fill="#E6E6E6"/>
  <path d="M349 217.821H156C153.746 217.818 151.586 216.922 149.992 215.328C148.399 213.735 147.503 211.574 147.5 209.321V80.3208C147.503 78.0673 148.399 75.9068 149.992 74.3133C151.586 72.7198 153.746 71.8234 156 71.8208H349C351.254 71.8235 353.414 72.7199 355.007 74.3134C356.601 75.9068 357.497 78.0673 357.5 80.3208V209.321C357.497 211.574 356.601 213.735 355.007 215.328C353.414 216.922 351.254 217.818 349 217.821Z" fill="white"/>
  <path d="M187.75 126.82C186.168 126.82 184.621 126.351 183.305 125.472C181.99 124.593 180.964 123.344 180.359 121.882C179.753 120.42 179.595 118.811 179.904 117.26C180.212 115.708 180.974 114.282 182.093 113.163C183.212 112.045 184.637 111.283 186.189 110.974C187.741 110.665 189.35 110.824 190.811 111.429C192.273 112.035 193.523 113.06 194.402 114.376C195.281 115.691 195.75 117.238 195.75 118.82C195.748 120.941 194.904 122.975 193.404 124.474C191.904 125.974 189.871 126.818 187.75 126.82Z" fill="#CCCCCC"/>
  <path d="M187.75 152.82C186.168 152.82 184.621 152.351 183.305 151.472C181.99 150.593 180.964 149.344 180.359 147.882C179.753 146.42 179.595 144.811 179.904 143.26C180.212 141.708 180.974 140.282 182.093 139.163C183.212 138.045 184.637 137.283 186.189 136.974C187.741 136.665 189.35 136.824 190.811 137.429C192.273 138.035 193.523 139.06 194.402 140.376C195.281 141.691 195.75 143.238 195.75 144.82C195.748 146.941 194.904 148.975 193.404 150.474C191.904 151.974 189.871 152.818 187.75 152.82Z" fill="black"/>
  <path d="M187.75 178.82C186.168 178.82 184.621 178.351 183.305 177.472C181.99 176.593 180.964 175.344 180.359 173.882C179.753 172.42 179.595 170.811 179.904 169.26C180.212 167.708 180.974 166.282 182.093 165.163C183.212 164.045 184.637 163.283 186.189 162.974C187.741 162.665 189.35 162.824 190.811 163.429C192.273 164.035 193.523 165.06 194.402 166.376C195.281 167.691 195.75 169.238 195.75 170.82C195.748 172.941 194.904 174.975 193.404 176.474C191.904 177.974 189.871 178.818 187.75 178.82Z" fill="black"/>
  <path d="M225.75 112.32C224.026 112.32 222.373 113.005 221.154 114.224C219.935 115.443 219.25 117.096 219.25 118.82C219.25 120.544 219.935 122.198 221.154 123.417C222.373 124.635 224.026 125.32 225.75 125.32H318.75C320.474 125.32 322.127 124.635 323.346 123.417C324.565 122.198 325.25 120.544 325.25 118.82C325.25 117.096 324.565 115.443 323.346 114.224C322.127 113.005 320.474 112.32 318.75 112.32H225.75Z" fill="#CCCCCC"/>
  <path d="M225.75 138.32C224.026 138.32 222.373 139.005 221.154 140.224C219.935 141.443 219.25 143.096 219.25 144.82C219.25 146.544 219.935 148.198 221.154 149.417C222.373 150.635 224.026 151.32 225.75 151.32H318.75C320.474 151.32 322.127 150.635 323.346 149.417C324.565 148.198 325.25 146.544 325.25 144.82C325.25 143.096 324.565 141.443 323.346 140.224C322.127 139.005 320.474 138.32 318.75 138.32H225.75Z" fill="black"/>
  <path d="M225.75 164.32C224.026 164.32 222.373 165.005 221.154 166.224C219.935 167.443 219.25 169.096 219.25 170.82C219.25 172.544 219.935 174.198 221.154 175.417C222.373 176.635 224.026 177.32 225.75 177.32H318.75C320.474 177.32 322.127 176.635 323.346 175.417C324.565 174.198 325.25 172.544 325.25 170.82C325.25 169.096 324.565 167.443 323.346 166.224C322.127 165.005 320.474 164.32 318.75 164.32H225.75Z" fill="black"/>
  <path d="M476.5 283.754H459V280.754C459 279.694 458.579 278.676 457.828 277.926C457.078 277.176 456.061 276.754 455 276.754H434C432.939 276.754 431.922 277.176 431.172 277.926C430.421 278.676 430 279.694 430 280.754V283.754H427V280.754C427 279.694 426.579 278.676 425.828 277.926C425.078 277.176 424.061 276.754 423 276.754H402C400.939 276.754 399.922 277.176 399.172 277.926C398.421 278.676 398 279.694 398 280.754V283.754H395V280.754C395 279.694 394.579 278.676 393.828 277.926C393.078 277.176 392.061 276.754 391 276.754H370C368.939 276.754 367.922 277.176 367.172 277.926C366.421 278.676 366 279.694 366 280.754V283.754H363V280.754C363 279.694 362.579 278.676 361.828 277.926C361.078 277.176 360.061 276.754 359 276.754H338C336.939 276.754 335.922 277.176 335.172 277.926C334.421 278.676 334 279.694 334 280.754V283.754H331V280.754C331 279.694 330.579 278.676 329.828 277.926C329.078 277.176 328.061 276.754 327 276.754H306C304.939 276.754 303.922 277.176 303.172 277.926C302.421 278.676 302 279.694 302 280.754V283.754H299V280.754C299 279.694 298.579 278.676 297.828 277.926C297.078 277.176 296.061 276.754 295 276.754H274C272.939 276.754 271.922 277.176 271.172 277.926C270.421 278.676 270 279.694 270 280.754V283.754H267V280.754C267 279.694 266.579 278.676 265.828 277.926C265.078 277.176 264.061 276.754 263 276.754H242C240.939 276.754 239.922 277.176 239.172 277.926C238.421 278.676 238 279.694 238 280.754V283.754H235V280.754C235 279.694 234.579 278.676 233.828 277.926C233.078 277.176 232.061 276.754 231 276.754H210C208.939 276.754 207.922 277.176 207.172 277.926C206.421 278.676 206 279.694 206 280.754V283.754H203V280.754C203 279.694 202.579 278.676 201.828 277.926C201.078 277.176 200.061 276.754 199 276.754H178C176.939 276.754 175.922 277.176 175.172 277.926C174.421 278.676 174 279.694 174 280.754V283.754H171V280.754C171 279.694 170.579 278.676 169.828 277.926C169.078 277.176 168.061 276.754 167 276.754H146C144.939 276.754 143.922 277.176 143.172 277.926C142.421 278.676 142 279.694 142 280.754V283.754H139V280.754C139 279.694 138.579 278.676 137.828 277.926C137.078 277.176 136.061 276.754 135 276.754H114C112.939 276.754 111.922 277.176 111.172 277.926C110.421 278.676 110 279.694 110 280.754V283.754H107V280.754C107 279.694 106.579 278.676 105.828 277.926C105.078 277.176 104.061 276.754 103 276.754H82C80.9391 276.754 79.9217 277.176 79.1716 277.926C78.4214 278.676 78 279.694 78 280.754V283.754H75V280.754C75 279.694 74.5786 278.676 73.8284 277.926C73.0783 277.176 72.0609 276.754 71 276.754H50C48.9391 276.754 47.9217 277.176 47.1716 277.926C46.4214 278.676 46 279.694 46 280.754V283.754H28.4999C20.9413 283.754 13.6922 286.757 8.34744 292.102C3.00267 297.447 0 304.696 0 312.254C0 314.509 0.895534 316.671 2.48959 318.265C4.08365 319.859 6.24566 320.754 8.5 320.754H496.5C498.754 320.754 500.916 319.859 502.51 318.265C504.104 316.671 505 314.509 505 312.254C505 304.696 501.997 297.447 496.653 292.102C491.308 286.757 484.059 283.754 476.5 283.754Z" fill="#3F3D56"/>
</svg>
